<?xml version="1.0" encoding="UTF-8" standalone="no"?>
<svg
   width="89.0482px"
   height="89.0482px"
   viewBox="0 0 89.0482 89.0482"
   version="1.1"
   id="svg125"
   sodipodi:docname="avatar-8-svgrepo-com.svg.2022_03_14_17_31_08.0.svg"
   inkscape:version="1.1.2 (b8e25be833, 2022-02-05)"
   xmlns:inkscape="http://www.inkscape.org/namespaces/inkscape"
   xmlns:sodipodi="http://sodipodi.sourceforge.net/DTD/sodipodi-0.dtd"
   xmlns="http://www.w3.org/2000/svg"
   xmlns:svg="http://www.w3.org/2000/svg">
  <sodipodi:namedview
     id="namedview127"
     pagecolor="#ffffff"
     bordercolor="#666666"
     borderopacity="1.0"
     inkscape:pageshadow="2"
     inkscape:pageopacity="0.0"
     inkscape:pagecheckerboard="0"
     showgrid="false"
     inkscape:zoom="9.3320244"
     inkscape:cx="44.524101"
     inkscape:cy="44.57768"
     inkscape:window-width="1920"
     inkscape:window-height="1017"
     inkscape:window-x="-8"
     inkscape:window-y="-8"
     inkscape:window-maximized="1"
     inkscape:current-layer="svg125" />
  <defs
     id="defs71">
    <style
       id="style69">.a{fill:#bf97c6;}.b,.h{fill:#231f20;}.b,.c,.d,.f,.g{fill-rule:evenodd;}.c{fill:#8d7972;}.d{fill:#a2d8ce;}.e,.f{fill:#f9ddd1;}.g{fill:#fff;}</style>
  </defs>
  <circle
     class="a"
     cx="44.5241"
     cy="44.5241"
     r="43.524"
     id="circle73" />
  <path
     class="b"
     d="M44.5241,0a44.5251,44.5251,0,1,1-31.483,13.0411A44.3855,44.3855,0,0,1,44.5241,0ZM74.5932,14.455A42.5246,42.5246,0,1,0,87.048,44.5241,42.392,42.392,0,0,0,74.5932,14.455Z"
     id="path75" />
  <path
     class="c"
     d="M 27.866082,54.217247 C 25.843119,50.801671 24.60254,48.455662 23.785748,44.714535 16.493112,11.34027 72.275982,11.130501 65.152079,44.506112 64.340893,48.306509 63.038854,50.847285 61.145016,54.368485 54.130287,51.906289 33.649068,51.882608 27.866082,54.217247 Z"
     id="path77"
     style="fill:#333333;stroke-width:0.745064" />
  <path
     class="b"
     d="m 27.124622,54.509025 c -1.02398,-1.729013 -1.850347,-3.187843 -2.524885,-4.689662 A 35.172928,28.678278 0 0 1 22.973246,44.830116 C 20.548857,33.735031 24.955199,26.180991 31.77347,22.201703 a 22.088644,18.009996 0 0 1 25.362336,-0.058 c 6.789729,3.931387 11.18715,11.425012 8.828858,22.47583 a 38.794244,31.630922 0 0 1 -1.633086,5.143512 c -0.673884,1.574882 -1.478881,3.102065 -2.43206,4.873866 a 0.82281645,0.67088412 0 0 1 -1.079189,0.348225 l -6.58e-4,0.0014 c -3.383013,-1.187504 -10.059367,-1.791649 -16.632905,-1.821385 -6.6592,-0.03014 -13.157478,0.524759 -15.956309,1.654336 a 0.82314649,0.67115323 0 0 1 -1.102285,-0.304899 l -0.0032,-0.0052 z M 26.147096,49.3567 c 0.578826,1.28936 1.275151,2.549791 2.117852,3.988033 3.306366,-1.039156 9.575192,-1.548912 15.927758,-1.520454 6.320464,0.02859 12.77206,0.58699 16.515734,1.682793 0.802937,-1.501617 1.491091,-2.83585 2.069012,-4.18623 a 37.162225,30.300254 0 0 0 1.561964,-4.928024 C 66.57179,33.935112 62.496908,26.893452 56.181717,23.236891 a 20.432945,16.66002 0 0 0 -23.453574,0.05833 C 26.386135,26.996252 22.303242,34.095837 24.59825,44.599022 a 33.566158,27.368197 0 0 0 1.548846,4.757678 z"
     id="path79"
     style="stroke-width:0.745064" />
  <path
     class="d"
     d="M64.0851,83.3771a43.573,43.573,0,0,1-39.122,0c-.0516-.5808-.08-1.1678-.08-1.762a19.6407,19.6407,0,0,1,39.2814,0C64.1648,82.2093,64.1367,82.7963,64.0851,83.3771Z"
     id="path81"
     style="fill:#999999" />
  <path
     class="b"
     d="M64.5344,84.2678a44.4677,44.4677,0,0,1-40.0206,0,.9972.9972,0,0,1-.548-.866c-.0258-.2991-.0456-.5856-.0581-.8575-.0159-.35-.0244-.6624-.0244-.9292a20.6408,20.6408,0,0,1,41.2816,0c0,.2668-.0085.5788-.0244.9292-.0133.29-.0349.5976-.0632.9187a.9953.9953,0,0,1-.5437.8031l.0008.0017ZM54.36,85.87a42.2232,42.2232,0,0,0,8.7738-3.1348l.0145-.2773c.0105-.2364.0164-.5159.0164-.843a18.6406,18.6406,0,1,0-37.2812,0c0,.3271.0059.6066.0164.843l.0145.2773A42.6863,42.6863,0,0,0,54.36,85.87Z"
     id="path83" />
  <circle
     class="e"
     cx="44.5241"
     cy="66.439"
     r="7.8846"
     id="circle85" />
  <path
     class="b"
     d="M44.5241,57.5544a8.8853,8.8853,0,1,1-6.2821,2.6024,8.8563,8.8563,0,0,1,6.2821-2.6024Zm4.8682,4.0164a6.8851,6.8851,0,1,0,2.0163,4.8682A6.8629,6.8629,0,0,0,49.3923,61.5708Z"
     id="path87" />
  <path
     class="f"
     d="M63.5386,47.3567a4.9312,4.9312,0,1,1-4.9311,4.9312A4.931,4.931,0,0,1,63.5386,47.3567Z"
     id="path89" />
  <path
     class="b"
     d="M63.5386,46.3567a5.9317,5.9317,0,1,1-4.1938,1.7373,5.9133,5.9133,0,0,1,4.1938-1.7373Zm2.78,3.1512a3.9324,3.9324,0,1,0,1.1511,2.78A3.92,3.92,0,0,0,66.3186,49.5079Z"
     id="path91" />
  <path
     class="f"
     d="M25.51,47.3567a4.9312,4.9312,0,1,1-4.9312,4.9312A4.931,4.931,0,0,1,25.51,47.3567Z"
     id="path93" />
  <path
     class="b"
     d="M25.51,46.3567a5.9315,5.9315,0,1,1-4.1939,1.7373A5.913,5.913,0,0,1,25.51,46.3567Zm2.78,3.1512a3.9322,3.9322,0,1,0,1.1512,2.78A3.92,3.92,0,0,0,28.29,49.5079Z"
     id="path95" />
  <circle
     class="e"
     cx="44.5241"
     cy="47.126"
     r="19.5001"
     id="circle97" />
  <path
     class="b"
     d="M44.5241,26.6258A20.5013,20.5013,0,1,1,30.0286,32.63a20.4361,20.4361,0,0,1,14.4955-6.0047Zm13.0816,7.4186A18.5006,18.5006,0,1,0,63.0241,47.126,18.442,18.442,0,0,0,57.6057,34.0444Z"
     id="path99" />
  <path
     class="c"
     d="M44.4405,70.4806C33.3919,68.485,25.81,59.5953,25.9651,52.8293c1.9281,2.6209,7.3026,7.8151,11.8979,8.1357.8818-4.4691,4.0785-3.5688,6.6713-2.8125,2.5929-.7563,5.7745-1.6566,6.6563,2.8125,3.9855-.1429,8.6777-3.7939,11.8511-8.1825.2015,6.3907-7.74,16.0308-18.6012,17.6981Zm-3.8251-7.3987c-.2066,1.91,7.9971,1.6563,7.8171,0-.5051-3.0878-.464-2.22-3.9314-1.95C41.0338,60.8618,41.1205,59.9941,40.6154,63.0819Z"
     id="path101"
     style="fill:#333333" />
  <path
     class="b"
     d="M44.1766,71.4447a26.2859,26.2859,0,0,1-13.3359-6.7581c-3.7831-3.6142-5.96-8.0416-5.8717-11.8769a.9962.9962,0,0,1,1.7994-.5695l.0015-.0008a26.3473,26.3473,0,0,0,5.8237,5.5094,12.9507,12.9507,0,0,0,4.5171,2.1073,4.1427,4.1427,0,0,1,3.2587-3.2375,9.1576,9.1576,0,0,1,4.1649.4964,9.1266,9.1266,0,0,1,4.1576-.4964,4.15,4.15,0,0,1,3.2612,3.27A11.7663,11.7663,0,0,0,56.59,57.8316a24.1369,24.1369,0,0,0,5.6432-5.635.9987.9987,0,0,1,1.8065.6284c.0831,3.6718-2.2405,8.2619-6.1517,11.9832A25.0419,25.0419,0,0,1,44.589,71.4691a.995.995,0,0,1-.4124-.0244Zm.0805-12.3353a8.3611,8.3611,0,0,0-3.5124-.53c-.8462.1639-1.56.8417-1.9018,2.5767a.9988.9988,0,0,1-1.0463.8048,13.4334,13.4334,0,0,1-6.3283-2.5637,28.8355,28.8355,0,0,1-4.0116-3.36,17.7543,17.7543,0,0,0,4.7594,7.2039,24.2814,24.2814,0,0,0,12.2278,6.2272,23.0459,23.0459,0,0,0,12.0685-6.1056A19.4513,19.4513,0,0,0,61.4,56.3065a24.2062,24.2062,0,0,1-3.6777,3.1658,12.7233,12.7233,0,0,1-6.42,2.4854.9993.9993,0,0,1-1.0919-.8014c-.3421-1.7353-1.0516-2.4131-1.8935-2.5767a8.3167,8.3167,0,0,0-3.4968.5276.9827.9827,0,0,1-.5627.0022Zm-4.6222,3.7888c-.0048.0255-.0088.0519-.0116.0783-.1213,1.1194.7421,1.8113,2.067,2.1551a10.9613,10.9613,0,0,0,2.7145.2852,12.5245,12.5245,0,0,0,2.7416-.3044c1.4312-.347,2.3959-1.05,2.2782-2.1359h0l-.0074-.0547c-.5545-3.3906-.6492-3.3764-3.2607-2.9917-.4331.0635-.9785.144-1.6554.1993-.6806-.0556-1.2263-.1367-1.6577-.2007-2.6-.3856-2.6581-.3938-3.2083,2.97Zm2.9191-.9927c-.6959-.1031-.7183-.106-.9468,1.2907.0071.0751.2583-.0788.5831.0056a8.9947,8.9947,0,0,0,2.2065.2228,10.4107,10.4107,0,0,0,2.2808-.25c.4223-.1023.7585.1347.7631.023-.23-1.4032-.2642-1.3984-.9953-1.2906-.4751.07-1.0777.159-1.8643.22a.9022.9022,0,0,1-.1542.0006C43.6329,62.066,43.0283,61.9761,42.554,61.9055Z"
     id="path103" />
  <path
     class="g"
     d="M52.8676,48.5342a3.7537,3.7537,0,1,1-3.7536,3.7537A3.7538,3.7538,0,0,1,52.8676,48.5342Z"
     id="path105" />
  <path
     class="b"
     d="M52.8676,47.5342a4.74,4.74,0,0,1,3.3574,1.3926l.0017.002.0019.0017.0012.0011a4.7432,4.7432,0,0,1-.0012,6.7136l-.0019.0017-.0017.002-.0012.0011a4.7431,4.7431,0,0,1-6.7136-.0011l-.0017-.002-.0019-.0017-.0012-.0011a4.7432,4.7432,0,0,1,.0012-6.7136l.0019-.0017.0017-.002.0012-.0011a4.7393,4.7393,0,0,1,3.3562-1.3915Zm1.9471,2.8029a2.7626,2.7626,0,0,0-3.8942,0l-.0037.0037a2.7626,2.7626,0,0,0,0,3.8942l.0037.0037a2.7629,2.7629,0,0,0,3.8942,0l.0037-.0037a2.7626,2.7626,0,0,0,0-3.8942Z"
     id="path107" />
  <path
     class="b"
     d="M40.7427,52.9072a.997.997,0,1,1-1.3045-1.508,7.66,7.66,0,0,1,5.0938-2.1169,8.0315,8.0315,0,0,1,5.0624,2.1013.9988.9988,0,1,1-1.2733,1.5392,6.138,6.138,0,0,0-3.8049-1.6483A5.7562,5.7562,0,0,0,40.7427,52.9072Z"
     id="path109" />
  <path
     class="b"
     d="M33.0835,50.3637a.9976.9976,0,0,1-1.0392,1.7031l-8.1564-4.9714a.9976.9976,0,1,1,1.0392-1.7031Z"
     id="path111" />
  <path
     class="b"
     d="M57.2709,52.0668a.9975.9975,0,1,1-1.0391-1.7031l8.1564-4.9714a.9975.9975,0,1,1,1.0391,1.7031Z"
     id="path113" />
  <path
     class="g"
     d="M36.18,48.5342a3.7537,3.7537,0,1,1-3.7536,3.7537A3.7538,3.7538,0,0,1,36.18,48.5342Z"
     id="path115" />
  <path
     class="b"
     d="M36.18,47.5342a4.7407,4.7407,0,0,1,3.3574,1.3926l.0017.002.002.0017.0011.0011a4.7433,4.7433,0,0,1-.0011,6.7136l-.002.0017-.0017.002-.0012.0011a4.743,4.743,0,0,1-6.7135-.0011l-.0017-.002-.002-.0017-.0012-.0011a4.7432,4.7432,0,0,1,.0012-6.7136l.002-.0017.0017-.002.0011-.0011A4.7383,4.7383,0,0,1,36.18,47.5342Zm1.9471,2.8029a2.7626,2.7626,0,0,0-3.8942,0l-.0037.0037a2.7626,2.7626,0,0,0,0,3.8942l.0037.0037a2.7629,2.7629,0,0,0,3.8942,0l.0037-.0037a2.7626,2.7626,0,0,0,0-3.8942Z"
     id="path117" />
  <path
     class="c"
     d="m 32.254398,27.514375 -6.7045,7.1592 2.5356,2.9914 c 5.4728,4.8623 13.560003,6.86 23.382703,6.8879 -2.754022,-1.365263 -4.726982,-3.921445 -5.35,-6.9315 7.1594,3.68 12.623305,4.388842 18.344405,5.337042 l 0.214437,-4.758078 -7.590342,-10.685964 -11.963,-4.35 z"
     id="path580"
     style="fill:#333333;fill-rule:evenodd"
     sodipodi:nodetypes="cccccccccc" />
  <path
     class="b"
     d="m 26.698798,37.782575 a 0.99797655,0.99797655 0 1 1 1.4609,-1.36 21.3687,21.3687 0 0 0 9.465803,5.6211 38.1734,38.1734 0 0 0 10.7918,1.567 11.9441,11.9441 0 0 1 -1.3184,-1.4446 9.4231,9.4231 0 0 1 -1.9729,-4.428 0.9988,0.9988 0 0 1 1.493,-0.9813 48.71,48.71 0 0 0 9.2888,3.6966 76.557,76.557 0 0 0 8.34,1.7212 0.99741679,0.99741679 0 0 1 -0.32,1.969 78.2686,78.2686 0 0 1 -8.5511,-1.768 48.9419,48.9419 0 0 1 -7.5952,-2.8284 9.1579,9.1579 0 0 0 0.8958,1.4 9.79,9.79 0 0 0 3.2,2.6961 0.9972,0.9972 0 0 1 -0.3625,1.9054 42.4944,42.4944 0 0 1 -14.4755,-1.5981 23.3452,23.3452 0 0 1 -10.340503,-6.168 z"
     id="path586"
     style="fill:#231f20;fill-rule:evenodd" />
</svg>
